# xmcd
#
# Track frame offsets: 
#        150
#        5422
#        17780
#        31397
#        43730
#        57160
#        69552
#        80625
#        93392
#        108672
#        137157
#        155557
#        182252
#        204392
#        216687
#        228365
#        246282
#
# Disc length: 3564 seconds
#
# Revision: 2
# Processed by: cddbd v1.5.2PL0 Copyright (c) Steve Scherf et al.
# Submitted via: ExactAudioCopyFreeDBPlugin 1.0
#
DISCID=ee0dea11
DTITLE=Various Artist - Martin Scorsese Presents The Blues:  The Road
DTITLE=To Memphis (A Film By Richard Pearce and Robert Kenner)
DYEAR=2003
DGENRE=Blues
TTITLE0=Rev. Gatemouth Moore - Beale Street Ain't Beale Street No More
TTITLE0=(Live Street Recording)
TTITLE1=Elmore James - Dust My Broom
TTITLE2=B.B. King - Three O'Clock Blues
TTITLE3=Howlin' Wolf - How Many More Years
TTITLE4=Howlin' Wolf - Moanin' At Midnight
TTITLE5=Rosco Gordon - Rosco's Boogie
TTITLE6=Little Junior's Blue Flames - Mystery Train
TTITLE7=Jackie Brenston - Rocket 88
TTITLE8=B.B. King - Precious Lord
TTITLE9=Bobby Rush - Hoochie Man (live)
TTITLE10=Robert Belfour - Done Got Old (live)
TTITLE11=Bobby Rush - Hen Pecked
TTITLE12=Rev.Charles E. Polk and The St. Luther Choir - Medley - Stand S
TTITLE12=till, Stay Right Here - Dance For The Devil (live)
TTITLE13=Bobby Bland - I Pity The Fool
TTITLE14=Sonny Boy Williamson II - Bring It On Home
TTITLE15=Hubert Sumlin and David Johansen - Killing Floor (live)
TTITLE16=Rosco Gordon - Now You're Gone
EXTD=Martin Scorsese Presents The Blues\nThe Road to Memphis\nA Film B
EXTD=y Richard Pearce And Robert Kenner
EXTT0=
EXTT1=
EXTT2=
EXTT3=
EXTT4=
EXTT5=
EXTT6=
EXTT7=
EXTT8=
EXTT9=
EXTT10=
EXTT11=
EXTT12=
EXTT13=
EXTT14=
EXTT15=
EXTT16=
PLAYORDER=
